<svg xmlns="http://www.w3.org/2000/svg" width="34.061" height="41.032" viewBox="0 0 34.061 41.032"><defs><style>.a{fill:#075949;}</style></defs><g transform="translate(8.555 13.847)"><g transform="translate(0 7.687)"><path class="a" d="M150.235,268.707v9.149a1.379,1.379,0,0,0,1.379,1.379h14.193a1.379,1.379,0,0,0,1.379-1.379v-9.149Z" transform="translate(-150.235 -268.707)"/></g><path class="a" d="M167.187,177.087H150.235a4.3,4.3,0,0,1,4.3-4.3h8.352A4.3,4.3,0,0,1,167.187,177.087Z" transform="translate(-150.235 -172.787)"/></g><g transform="translate(0 0)"><path class="a" d="M76.749,22.315H74.2V17.581A13.83,13.83,0,0,0,72.587,11V.8a.8.8,0,0,0-.8-.8H67.1a.8.8,0,0,0-.8.8V5.528a11.647,11.647,0,0,0-1.743-.474,4.085,4.085,0,0,0-8.072,0,11.662,11.662,0,0,0-1.743.474V.8a.8.8,0,0,0-.8-.8H49.254a.8.8,0,0,0-.8.8V11a13.83,13.83,0,0,0-1.609,6.579v4.734H44.29a.8.8,0,0,0-.8.8V35.677a.8.8,0,0,0,.8.8h2.553v1.848a2.708,2.708,0,0,0,2.705,2.705H71.491A2.708,2.708,0,0,0,74.2,38.326V36.478h2.553a.8.8,0,0,0,.8-.8V23.116A.8.8,0,0,0,76.749,22.315ZM67.9,1.6h3.083V8.7l-.093-.1A11.363,11.363,0,0,0,67.9,6.245V1.6Zm-7.382,1.6a2.486,2.486,0,0,1,2.338,1.649q-.3-.014-.6-.014H58.783q-.3,0-.6.014A2.486,2.486,0,0,1,60.52,3.206ZM50.055,1.6h3.083V6.245A11.363,11.363,0,0,0,50.148,8.6l-.093.1V1.6ZM48.446,17.581c0-6.35,4.444-11.138,10.337-11.138h3.473c5.893,0,10.337,4.788,10.337,11.138V34.876H48.446Zm-3.354,6.337h1.752V34.875H45.092Zm26.4,15.511H49.549a1.1,1.1,0,0,1-1.1-1.1V36.478H72.593v1.848A1.1,1.1,0,0,1,71.491,39.429Zm4.457-4.553H74.2V23.918h1.752Z" transform="translate(-43.489 0)"/></g></svg>