<svg xmlns="http://www.w3.org/2000/svg" width="40.838" height="40.838" viewBox="0 0 40.838 40.838"><defs><style>.a{fill:#075949;}</style></defs><g transform="translate(-1 -1)"><path class="a" d="M40.513,38.005l-.034-2.5a9.774,9.774,0,0,0-5.988-7.985l-.165-.663a3.3,3.3,0,0,0,1.518-2.143h.066a2.637,2.637,0,0,0,2.635-2.635,2.608,2.608,0,0,0-.2-.993,3.516,3.516,0,0,0,.2-1.111V18.892a3.543,3.543,0,0,0-2.205-3.284L36,15.1a3.539,3.539,0,0,0-2.952-1.581H30.86a5.486,5.486,0,0,0-4.74,2.735A9.744,9.744,0,0,0,23.953,15l-.166-.663A3.293,3.293,0,0,0,25.305,12.2h.066a2.637,2.637,0,0,0,2.635-2.635,2.608,2.608,0,0,0-.323-1.238A5.474,5.474,0,0,0,22.517,1h-2.2a5.5,5.5,0,0,0-5.489,5.489,5.439,5.439,0,0,0,.323,1.836,2.6,2.6,0,0,0-.323,1.238A2.637,2.637,0,0,0,17.467,12.2h.067a3.29,3.29,0,0,0,1.518,2.143L18.886,15a9.725,9.725,0,0,0-2.49,1.51,6.582,6.582,0,0,0-12.1,3.59v6.587a4.624,4.624,0,0,0,.991,2.845,9.862,9.862,0,0,0-2.93,6.033l-.031,2.438A1.973,1.973,0,0,0,1,39.862v1.976H41.838V39.862a1.973,1.973,0,0,0-1.325-1.857Zm-1.348-2.422.029,2.3H37.14l-.578-4.046-1.3.186.551,3.859H31.3V37.6a2,2,0,0,0-1.516-1.934.692.692,0,0,1-.41-1.023,1.98,1.98,0,0,0,.239-1.39l2.346-2.345L34.4,33.355l.589-4.12a8.422,8.422,0,0,1,4.177,6.348Zm-11.857,2.3a5.926,5.926,0,0,0-11.778,0H12.856V37.6a.678.678,0,0,1,.522-.657A2.009,2.009,0,0,0,14.6,33.975a.673.673,0,0,1,.1-.821l1.329-1.329a.678.678,0,0,1,.835-.095,2.009,2.009,0,0,0,2.963-1.241.671.671,0,0,1,.652-.508h1.88a.678.678,0,0,1,.657.522,2.009,2.009,0,0,0,2.973,1.219.673.673,0,0,1,.821.1l1.329,1.329a.678.678,0,0,1,.095.835,2.009,2.009,0,0,0,1.241,2.963.671.671,0,0,1,.508.652v.281Zm-1.331,0H16.861a4.6,4.6,0,0,1,9.116,0Zm-15.174,0-.659-5.269h1.472l-.659,5.269Zm4.8-7.359a1.976,1.976,0,0,0-.51.367l-1.329,1.329a1.994,1.994,0,0,0-.3,2.438.692.692,0,0,1-.433,1.014,1.981,1.981,0,0,0-.5.212l.865-6.923A8.489,8.489,0,0,1,15.607,30.527Zm-4.069-4.5H10.221a1.978,1.978,0,0,1-1.976-1.976V21.363A3.811,3.811,0,0,0,10.3,20.295l.579-.579.579.579a3.811,3.811,0,0,0,2.056,1.068v2.691A1.978,1.978,0,0,1,11.539,26.03Zm-1.317,1.317h1.317A3.234,3.234,0,0,0,12,27.3l.186.746L11.781,31.3h-1.8l-.406-3.253.186-.746a3.253,3.253,0,0,0,.462.047Zm9.7-9.015-.242-1.426.794,1.058Zm1.5.586.4.267-.29,1.576h-.221l-.29-1.576Zm1.738-2.012-.242,1.426-.552-.368Zm-1.819,5.172H21.5l.865,6.587H20.474Zm9.688,7.9-.579.579-.193-1.351Zm-2.1-.735.5,3.465a1.982,1.982,0,0,0-.354-.489l-1.329-1.329a1.971,1.971,0,0,0-.507-.365A8.488,8.488,0,0,1,28.929,29.247Zm4.732-.037-.193,1.351-.579-.579ZM33.2,27.8,31.958,29.05,30.711,27.8l.126-.5a3.253,3.253,0,0,0,.462.047h1.317a3.234,3.234,0,0,0,.462-.047Zm1.388-3.75a1.978,1.978,0,0,1-1.976,1.976H31.3a1.978,1.978,0,0,1-1.976-1.976V20.7a3.811,3.811,0,0,0,2.056-1.068l.579-.579.579.579A3.811,3.811,0,0,0,34.593,20.7Zm1.317-.659V20.76a1.317,1.317,0,0,1,0,2.635Zm-5.05-8.563h2.185a2.226,2.226,0,0,1,1.856.993l.585.877.214.071a2.229,2.229,0,0,1,1.527,2.117v.918a2.608,2.608,0,0,0-1.317-.366h-.659a2.506,2.506,0,0,1-1.783-.738l-1.51-1.51-1.51,1.51a2.506,2.506,0,0,1-1.783.738h-.659a2.6,2.6,0,0,0-1.244.327A4.125,4.125,0,0,1,26.688,19a4.176,4.176,0,0,1,4.171-4.171Zm-4.171,7.245a1.319,1.319,0,0,1,1.317-1.317v2.635A1.319,1.319,0,0,1,26.688,22.078Zm-.994-1.238a2.6,2.6,0,0,0-.323,1.238,2.637,2.637,0,0,0,2.635,2.635h.067a3.29,3.29,0,0,0,1.518,2.143l-.166.663a9.824,9.824,0,0,0-3.936,2.989,1.945,1.945,0,0,0-.186.091.691.691,0,0,1-1.014-.433,1.985,1.985,0,0,0-.517-.907l-1.028-7.822.268-1.456.862.575.644-3.793a8.52,8.52,0,0,1,1.064.754,5.362,5.362,0,0,0,.113,3.324Zm-.323-9.96V8.245a1.317,1.317,0,0,1,0,2.635ZM16.15,9.563a1.319,1.319,0,0,1,1.317-1.317h.019c-.007.075-.019.149-.019.225V10.88A1.319,1.319,0,0,1,16.15,9.563Zm3.905-2.438a2.36,2.36,0,0,0,2.023,1.12V6.928c-1.042,0-1.317-1.292-1.317-1.976H19.443a4.382,4.382,0,0,0,.1.943l-.083.02a2.624,2.624,0,0,0-1.491,1.013h-.505a2.6,2.6,0,0,0-1.244.327,4.125,4.125,0,0,1-.074-.766,4.176,4.176,0,0,1,4.171-4.171h2.2a4.176,4.176,0,0,1,4.172,4.171,4.118,4.118,0,0,1-.074.765,2.606,2.606,0,0,0-1.244-.326h-.659c-1.042,0-1.317-1.292-1.317-1.976H22.078a3.155,3.155,0,0,0,1.976,3.2v3.384a1.978,1.978,0,0,1-1.976,1.976H20.76a1.978,1.978,0,0,1-1.976-1.976V8.471a1.315,1.315,0,0,1,1-1.278Zm.705,7.707h1.317a3.235,3.235,0,0,0,.462-.047l.14.561-1.261,1.681-1.261-1.681.14-.561a3.235,3.235,0,0,0,.462.047Zm-2.439,1.934.642,3.788.862-.575.268,1.456L19.066,29.26a2.01,2.01,0,0,0-.521.92.692.692,0,0,1-1.023.41c-.057-.034-.117-.058-.176-.086a9.844,9.844,0,0,0-.874-.968,4.613,4.613,0,0,0,.995-2.847V20.1a6.543,6.543,0,0,0-.451-2.378,8.433,8.433,0,0,1,1.306-.958ZM5.611,26.688V20.1a5.269,5.269,0,0,1,10.539,0v6.587a3.251,3.251,0,0,1-.684,2,9.8,9.8,0,0,0-2.052-1.165l-.166-.663a3.285,3.285,0,0,0,1.585-2.8V20.1h-.659a2.506,2.506,0,0,1-1.783-.738l-1.51-1.51-1.51,1.51a2.506,2.506,0,0,1-1.783.738H6.928v3.952a3.283,3.283,0,0,0,1.585,2.8l-.166.663a9.847,9.847,0,0,0-2.054,1.164,3.253,3.253,0,0,1-.682-1.993ZM8.36,28.963l1.115,8.923H7.029l.551-3.859-1.3-.187L5.7,37.886H3.643l.026-2.238A8.456,8.456,0,0,1,8.36,28.963ZM40.521,40.521H2.317v-.659a.66.66,0,0,1,.659-.659H39.862a.66.66,0,0,1,.659.659Z" transform="translate(0 0)"/><path class="a" d="M15.735,34.486a.965.965,0,0,1-1.317,0l-.193-.193-.931.931.193.193a2.249,2.249,0,0,0,3.18,0l.193-.193-.931-.931Z" transform="translate(-4.196 -11.364)"/><path class="a" d="M31.076,17.076a2.232,2.232,0,0,0,1.59-.659l.193-.193-.931-.931-.193.193a.965.965,0,0,1-1.317,0l-.193-.193-.931.931.193.193A2.232,2.232,0,0,0,31.076,17.076Z" transform="translate(-9.657 -4.879)"/><path class="a" d="M46.417,34.486l-.193-.193-.931.931.193.193a2.249,2.249,0,0,0,3.18,0l.193-.193-.931-.931-.193.193A.965.965,0,0,1,46.417,34.486Z" transform="translate(-15.118 -11.364)"/></g></svg>