<svg xmlns="http://www.w3.org/2000/svg" width="40" height="40" viewBox="0 0 40 40"><defs><style>.a{fill:#075949;}</style></defs><g transform="translate(-320 -925)"><g transform="translate(323.333 925)"><path class="a" d="M50,0A10,10,0,0,0,40,10v7.333A4.672,4.672,0,0,0,44.667,22h.667V20.666h-.667a3.337,3.337,0,0,1-3.333-3.333V10a8.667,8.667,0,0,1,17.333,0v7.333a3.337,3.337,0,0,1-3.333,3.333h-.667V22h.667A4.672,4.672,0,0,0,60,17.333V10A10,10,0,0,0,50,0Z" transform="translate(-40)"/></g><g transform="translate(323.333 954.937)"><path class="a" d="M42.163,360.73l.487-.767-1.126-.715-.487.768a6.645,6.645,0,0,0,.275,7.522v1.773h1.333v-2a.667.667,0,0,0-.146-.417A5.311,5.311,0,0,1,42.163,360.73Z" transform="translate(-40.003 -359.248)"/></g><g transform="translate(344.667 925)"><path class="a" d="M308,0h-8.667A3.337,3.337,0,0,0,296,3.333V10a3.337,3.337,0,0,0,3.333,3.333h1.333V16a.667.667,0,0,0,.411.616.658.658,0,0,0,.255.051.667.667,0,0,0,.471-.2l3.138-3.138H308A3.337,3.337,0,0,0,311.333,10V3.333A3.337,3.337,0,0,0,308,0Zm2,10a2,2,0,0,1-2,2h-3.333a.667.667,0,0,0-.471.2l-2.2,2.2V12.666a.667.667,0,0,0-.667-.667h-2a2,2,0,0,1-2-2V3.333a2,2,0,0,1,2-2H308a2,2,0,0,1,2,2Z" transform="translate(-296)"/></g><g transform="translate(348 928.2)"><g transform="translate(0 0)"><rect class="a" width="5" height="2" transform="translate(0 -0.2)"/></g></g><g transform="translate(353.6 928.2)"><g transform="translate(0 0)"><rect class="a" width="3" height="2" transform="translate(0.4 -0.2)"/></g></g><g transform="translate(348 931.4)"><g transform="translate(0 0)"><rect class="a" width="9" height="1" transform="translate(0 -0.4)"/></g></g><g transform="translate(348 933.8)"><g transform="translate(0 0)"><rect class="a" width="5" height="1" transform="translate(0 0.2)"/></g></g><g transform="translate(340.685 954.937)"><path class="a" d="M249.837,360.016l-.487-.768-1.126.715.487.768a5.31,5.31,0,0,1-.337,6.163.667.667,0,0,0-.146.417v2h1.333v-1.773A6.645,6.645,0,0,0,249.837,360.016Z" transform="translate(-248.224 -359.248)"/></g><g transform="translate(320 930.821)"><path class="a" d="M39.333,86.693h-6a4.667,4.667,0,0,0-4.657,4.477l-2.009,3.617V92.026A4.672,4.672,0,0,0,22,87.359H19.563l-.018-.014-.012.014H18a1.333,1.333,0,0,1-1.333-1.333V84.457A6.667,6.667,0,0,0,20,78.693V73.359a6.68,6.68,0,0,0-.8-3.164.667.667,0,0,0-.867-.287L7.049,75.218a.667.667,0,0,0-.383.6v2.871A6.667,6.667,0,0,0,10,84.457v1.569a1.333,1.333,0,0,1-1.333,1.333h-4A4.672,4.672,0,0,0,0,92.026v12H1.333v-12a3.337,3.337,0,0,1,3.333-3.333H6.788l6,8.388a.667.667,0,0,0,.533.279h.009a.667.667,0,0,0,.533-.267l6.333-8.4H22a3.337,3.337,0,0,1,3.333,3.333v5.333a.667.667,0,0,0,1.249.323l3.143-5.657h3.822l-6.5,12h1.517l6.5-12h.267A4.672,4.672,0,0,0,40,87.359.667.667,0,0,0,39.333,86.693ZM8,78.693V76.245L18.294,71.4a5.333,5.333,0,0,1,.373,1.959v5.333A5.333,5.333,0,1,1,8,78.693Zm5.347,16.874L11.29,92.692h4.224Zm3.175-4.208H10.333L8.425,88.692h.242a2.667,2.667,0,0,0,2.667-2.667v-.974a6.661,6.661,0,0,0,4,0v.974A2.667,2.667,0,0,0,18,88.692h.533Zm18.81-.667H30.066a3.339,3.339,0,0,1,3.267-2.667H38.6A3.339,3.339,0,0,1,35.333,90.692Z" transform="translate(0 -69.847)"/></g></g></svg>