<svg xmlns="http://www.w3.org/2000/svg" width="44.113" height="38" viewBox="0 0 44.113 38"><defs><style>.a{fill:#075949;}</style></defs><path class="a" d="M42.807,38.695h-6.43V37.542a2.068,2.068,0,0,0-4.137,0v1.153H29.892a.646.646,0,0,0,0,1.292h2.348v.858a2.068,2.068,0,0,0,4.137,0v-.858h6.43a.014.014,0,0,1,.014.014v7.3H1.292V40a.014.014,0,0,1,.014-.014h6.43v.858a2.068,2.068,0,0,0,4.137,0v-.858H26.923a.646.646,0,0,0,0-1.292H11.872V37.542a2.068,2.068,0,1,0-4.137,0v1.153H1.305A1.307,1.307,0,0,0,0,40V72.169a1.307,1.307,0,0,0,1.305,1.305H7.014a.646.646,0,0,0,0-1.292H1.305a.014.014,0,0,1-.014-.014V48.6h41.53V72.169a.014.014,0,0,1-.014.014H10.039a.646.646,0,1,0,0,1.292H42.807a1.307,1.307,0,0,0,1.305-1.305V40A1.307,1.307,0,0,0,42.807,38.695Zm-7.721,2.15a.777.777,0,0,1-1.554,0v-3.3a.777.777,0,0,1,1.554,0Zm-26.059-3.3a.777.777,0,0,1,1.554,0v3.3a.777.777,0,0,1-1.554,0Z" transform="translate(0 -35.474)"/><g transform="translate(3.266 21.772)"><path class="a" d="M359.7,288.657l-.007-.018a.756.756,0,0,0-.7-.47h0a.756.756,0,0,0-.7.471l-.006.015-1.876,4.925a.646.646,0,0,0,1.207.46l.309-.811h2.122l.305.809a.646.646,0,1,0,1.208-.456Zm-1.285,3.281.574-1.507.569,1.507Z" transform="translate(-328.931 -288.169)"/><path class="a" d="M203.455,293.159l-1.1,0v-4.349a.646.646,0,1,0-1.292,0V293.8a.646.646,0,0,0,.537.637c.047.008,1.289.012,1.862.009a.646.646,0,0,0-.007-1.292Z" transform="translate(-187.006 -288.168)"/><path class="a" d="M254.544,288.168a.646.646,0,0,0-.646.646v5a.646.646,0,0,0,1.292,0v-5A.646.646,0,0,0,254.544,288.168Z" transform="translate(-235.288 -288.168)"/><path class="a" d="M42,288.168a.646.646,0,0,0-.646.646v1.766H39.194v-1.766a.646.646,0,1,0-1.292,0v5a.646.646,0,1,0,1.292,0v-1.937h2.165v1.937a.646.646,0,0,0,1.292,0v-5A.646.646,0,0,0,42,288.168Z" transform="translate(-37.902 -288.168)"/><path class="a" d="M292.922,289.883h-1.373a.646.646,0,0,0-.646.647v0h0V295.3a.667.667,0,0,0,.656.724h0c.042,0,1.021,0,1.412-.011a2.775,2.775,0,0,0,2.552-3.059C295.525,291.117,294.479,289.883,292.922,289.883Zm.927,4.376a1.111,1.111,0,0,1-.9.46c-.173,0-.471.005-.748.007,0-.571,0-1.373,0-1.78,0-.34,0-1.179,0-1.773h.726c1.217,0,1.312,1.361,1.312,1.778A2.158,2.158,0,0,1,293.849,294.259Z" transform="translate(-269.105 -289.735)"/><path class="a" d="M426.4,288.286a.646.646,0,0,0-.894.189l-1.042,1.6-1.054-1.614a.646.646,0,0,0-1.081.706l1.49,2.282-.006,2.358a.646.646,0,0,0,.644.647h0a.646.646,0,0,0,.646-.644l.006-2.361,1.478-2.271A.646.646,0,0,0,426.4,288.286Z" transform="translate(-389.11 -288.169)"/><path class="a" d="M113.7,288.168a3.143,3.143,0,1,0,3.143,3.143A3.147,3.147,0,0,0,113.7,288.168Zm0,5a1.852,1.852,0,1,1,1.852-1.852A1.854,1.854,0,0,1,113.7,293.163Z" transform="translate(-104.295 -288.168)"/></g></svg>