<svg xmlns="http://www.w3.org/2000/svg" width="36.139" height="43.911" viewBox="0 0 36.139 43.911"><defs><style>.a{fill:#075949;}</style></defs><path class="a" d="M111.135,751.163c-.215-.22-.544-.556-.939-.97-1.009-1.057-2.095-2.23-2.525-2.726a17.935,17.935,0,0,1-3.519-6.685,16.324,16.324,0,0,1-.418-3.711c.123-4.753,4.717-13.7,13.7-13.7a13.711,13.711,0,0,1,13.7,13.7,17.222,17.222,0,0,1-.491,3.64,15.55,15.55,0,0,1-.907,2.936,15.812,15.812,0,0,1-.689,1.427c.177.15.418.36.7.619.261.239.457.428.629.59q.769.733,1.488,1.451a21.344,21.344,0,0,0,2.99-5.834,20.007,20.007,0,0,0,.655-4.831,18.07,18.07,0,1,0-36.139,0,21.55,21.55,0,0,0,.658,4.84,26.474,26.474,0,0,0,8.824,12.283l1.113-1.475Q110.546,751.938,111.135,751.163Z" transform="translate(-99.36 -719)"/><g transform="translate(10.633 27.262)"><path class="a" d="M103.756,739.313q1.811,1.778,3.638,3.606,2.006,2.01,3.943,4a25.174,25.174,0,0,1,.474-2.646c.172-.745.368-1.437.573-2.071,0,0,.9-2.586,1.826-2.591a5.168,5.168,0,0,1,.551.039,6.259,6.259,0,0,1,.769.135l.087.022c.81.208,7.165-5.442,7.165-5.442.486-.431,1.1-.958,1.833-1.543l-2.755-2.552-5.854,7.1-3.069-1.181q-1.259,2.384-2.513,4.768l-4.351-4.509Z" transform="translate(-103.756 -730.271)"/></g><g transform="translate(18.105 29.814)"><path class="a" d="M106.947,745.367l2.847-7.039,2.535,1.33q3.955-4.165,7.9-8.333l-10.856,6.4-1.28,1.589-1.253,4.84Z" transform="translate(-106.845 -731.326)"/></g><g transform="translate(7.423 7.849)"><path class="a" d="M102.5,732.586a10.125,10.125,0,0,0,1.664,5.563l7.242-8.209v-7.61a10.508,10.508,0,0,0-8.906,10.256Z" transform="translate(-102.327 -722.124)"/><path class="a" d="M104.248,738.558l-.126-.191a10.326,10.326,0,0,1,.909-12.52,10.988,10.988,0,0,1,6.449-3.57l.2-.031v7.88Zm7.087-15.9a10.613,10.613,0,0,0-6.042,3.418,9.974,9.974,0,0,0-1,11.905l7.044-7.987Z" transform="translate(-102.429 -722.245)"/></g><g transform="translate(11.547 20.782)"><path class="a" d="M108.94,735.1v-7.322l-4.7,5.329a10.809,10.809,0,0,0,4.7,1.993Z" transform="translate(-103.984 -727.321)"/><path class="a" d="M109.264,735.582l-.2-.034a11.027,11.027,0,0,1-4.775-2.024l-.152-.114,5.13-5.817Zm-4.615-2.228a10.673,10.673,0,0,0,4.267,1.814v-6.652Z" transform="translate(-104.134 -727.592)"/></g><g transform="translate(19.81 20.608)"><path class="a" d="M107.622,735.224a10.8,10.8,0,0,0,4.833-2.034l-4.833-5.479v7.513Z" transform="translate(-107.448 -727.249)"/><path class="a" d="M107.55,735.7V727.52l5.263,5.967-.152.114a11.033,11.033,0,0,1-4.91,2.066Zm.348-7.254v6.845a10.714,10.714,0,0,0,4.4-1.855Z" transform="translate(-107.55 -727.52)"/></g><g transform="translate(19.81 7.835)"><path class="a" d="M107.622,722.323v7.452l7.365,8.35a10.117,10.117,0,0,0,1.645-5.529,10.509,10.509,0,0,0-9.01-10.273Z" transform="translate(-107.448 -722.12)"/><path class="a" d="M115.111,738.532l-7.561-8.572v-7.721l.2.029a10.973,10.973,0,0,1,6.521,3.548,10.326,10.326,0,0,1,.965,12.524Zm-7.213-8.7,7.169,8.125a9.969,9.969,0,0,0-1.057-11.905,10.621,10.621,0,0,0-6.112-3.4Z" transform="translate(-107.55 -722.239)"/></g></svg>